# xmcd
#
# Track frame offsets: 
#        150
#        15267
#        34273
#        55410
#        70284
#        91065
#        109358
#        121736
#        137394
#        151678
#        170564
#        185271
#
# Disc length: 2660 seconds
#
# Revision: 0
# Processed by: cddbd v1.5.2PL0 Copyright (c) Steve Scherf et al.
# Submitted via: ExactAudioCopy v0.99pb3
#
DISCID=900a620c
DTITLE=James Goodwin - Blue-Eyed Devil - Solo Blues Piano
DYEAR=2008
DGENRE=Blues
TTITLE0=Goodwin Boogie
TTITLE1=Deep Feeling Blues
TTITLE2=Blue-Eyed Devil
TTITLE3=Snake Hips Shuffle
TTITLE4=Blues For Stella
TTITLE5=J's Bounce
TTITLE6=A Bit Of J's Soul
TTITLE7=Lumber Camp Strut
TTITLE8=Fireside Blues
TTITLE9=Jaywalkin'
TTITLE10=Blacks On Whites
TTITLE11=Barrelhouse Farewell
EXTD=
EXTT0=
EXTT1=
EXTT2=
EXTT3=
EXTT4=
EXTT5=
EXTT6=
EXTT7=
EXTT8=
EXTT9=
EXTT10=
EXTT11=
PLAYORDER=
